<?xml version="1.0" encoding="utf-8"?>
<!-- Generator: Adobe Illustrator 17.1.0, SVG Export Plug-In . SVG Version: 6.00 Build 0)  -->
<!DOCTYPE svg PUBLIC "-//W3C//DTD SVG 1.1//EN" "http://www.w3.org/Graphics/SVG/1.1/DTD/svg11.dtd">
<svg version="1.1" id="menuhamburger" xmlns="http://www.w3.org/2000/svg" xmlns:xlink="http://www.w3.org/1999/xlink" x="0px"
	 y="0px" viewBox="0 0 60 60" enable-background="new 0 0 60 60" xml:space="preserve">
<g>
	<path d="M60,7.5C60,6.1,58.9,5,57.5,5H2.6C1.2,5,0.1,6.1,0.1,7.5v5c0,1.4,1.1,2.5,2.5,2.5h54.9c1.4,0,2.5-1.1,2.5-2.5V7.5z
		 M60,27.5c0-1.4-1.1-2.5-2.5-2.5H2.6c-1.4,0-2.5,1.1-2.5,2.5v5c0,1.4,1.1,2.5,2.5,2.5h54.9c1.4,0,2.5-1.1,2.5-2.5V27.5z M60,47.5
		c0-1.4-1.1-2.5-2.5-2.5H2.6c-1.4,0-2.5,1.1-2.5,2.5v5c0,1.4,1.1,2.5,2.5,2.5h54.9c1.4,0,2.5-1.1,2.5-2.5V47.5z"/>
</g>
</svg>
