<?xml version="1.0" encoding="utf-8"?>
<!-- Generator: Adobe Illustrator 17.1.0, SVG Export Plug-In . SVG Version: 6.00 Build 0)  -->
<!DOCTYPE svg PUBLIC "-//W3C//DTD SVG 1.1//EN" "http://www.w3.org/Graphics/SVG/1.1/DTD/svg11.dtd">
<svg version="1.1" id="Layer_1" xmlns="http://www.w3.org/2000/svg" xmlns:xlink="http://www.w3.org/1999/xlink" x="0px" y="0px"
	 viewBox="0 0 592 592" enable-background="new 0 0 592 592" xml:space="preserve">
<g>
	<path fill="#FFFFFF" d="M97.6,21c8.9,0.2,19.2,4.4,27.9,12c50.3,43.5,98.6,89.2,145.1,136.8c12.5,12.8,11.9,31.5-0.3,43.8
		c-12.8,12.9-33.3,13.6-46.4,0.7c-10.2-10-19.5-21-29.2-31.7c-35-38.7-69.9-77.4-104.8-116.1c-6.6-7.3-12.3-15-13.4-25.2
		C75.2,28.3,81.6,21.1,97.6,21"/>
	<path fill="#FFFFFF" d="M223.2,349.3c0,5.1-3.7,13.5-11,20.1c-49,44.3-98.1,88.6-147.2,132.8c-8,7.2-16.9,12.8-28.4,12.3
		c-9.4-0.4-15.1-5.6-15.8-15c-1-13.2,3.8-24.6,12.2-34.3c43.5-50.3,89.4-98.3,136.9-144.7c9.7-9.5,21.2-11.4,33.7-6.3
		C215.4,318.9,223.2,331.4,223.2,349.3"/>
	<path fill="#FFFFFF" d="M570.2,96.5c-0.1,10.3-4.4,20.6-12,29.3c-43.6,50.2-89.2,98.6-137,144.9c-13,12.6-31.4,12-43.6-0.5
		c-12.7-12.9-13.2-33.5-0.2-46.4c11.5-11.4,24-21.9,36-32.8c37.6-33.9,75.1-67.7,112.7-101.6c6.8-6.2,14.2-11.2,23.7-12.3
		C563,75.6,570.1,81.9,570.2,96.5"/>
	<path fill="#FFFFFF" d="M33.8,83.7c0.4-8.1,1-16.2,8.8-20.6c8.2-4.6,15.7-0.8,22.7,3.6c4.3,2.7,7.7,6.3,10.9,10.2
		c41.5,49.9,83.5,99.5,126.4,148.2c8.8,10,13,21.3,9.2,34.5c-3.6,12.4-11.7,20.7-24.3,23.5c-12.4,2.7-22.6-1.6-30.6-11.6
		c-29-36.3-56.8-73.6-83.1-112c-10.2-14.9-20.1-30.1-30.2-45.1C37.5,105.1,34.4,94.8,33.8,83.7"/>
	<path fill="#FFFFFF" d="M83.7,557.2c-8.8-0.2-16.3-1.2-20.7-8.4c-4.8-7.8-1.2-15,2.7-21.9c3-5.2,7.5-9.1,12-12.9
		c49.9-42.4,99.8-84.8,149.7-127.2c11.8-10,27.3-11.5,40-4.1c12.1,7,18.1,19.8,15.8,33.2c-1.4,7.8-5.7,13.7-11.8,18.5
		c-50.8,40.4-103.4,78.3-157.9,113.5C104.1,553.8,93.8,556.7,83.7,557.2"/>
	<path fill="#FFFFFF" d="M316.5,415.4c-2.2-2.3-3.5-4.9-3.4-8.2c0.2-5,0.1-9.9,0.1-14.9c2.8-12.5,11.2-19.7,23-22.9
		c12.9-3.6,24.2,0.2,33.2,9.9c16.3,17.7,32.3,35.6,48.5,53.4c27.8,30.8,55.6,61.7,83.5,92.5c6.8,7.6,12.4,15.7,13.3,26.2
		c1,10.9-5,18.1-16,18.7c-12.9,0.7-24.1-4.2-33.5-12.4c-50.4-43.9-99.1-89.7-145.7-137.7c-0.4-0.4-0.6-1.1-0.9-1.6
		C318.5,417,318.6,415.5,316.5,415.4"/>
	<path fill="#FFFFFF" d="M340.8,212.9c-14.7,0-27-8.5-31.7-21.9c-4.4-12.6-0.8-24.4,11.1-33.9c50.7-40.6,103.4-78.6,158.1-113.6
		c11.9-7.6,25-11.5,39.3-7.9c10.7,2.7,14.6,10,11.5,20.6c-2.2,7.5-6.6,13.5-12.4,18.3C465,117.4,413.9,160.9,363.2,205
		C356.8,210.5,349.3,213.1,340.8,212.9"/>
	<path fill="#FFFFFF" d="M557,508c-0.2,8.1-0.9,16.2-9,20.3c-7.9,4-15.2,0.6-22-3.7c-4.8-3-8.6-7.2-12.2-11.6
		c-41.2-49.8-83.3-98.9-125.7-147.7c-12-13.8-13.3-31.1-3.4-44.7c12.4-17,35.6-17.8,48.9-1.1c18.5,23.1,36.2,46.9,53.6,70.8
		c20.6,28.2,40.3,57,59.6,86C553.3,486,556.8,496.5,557,508"/>
	<path fill="#FFFFFF" d="M139.7,589c-5.8,0.3-12.6-0.4-19-3.2c-8.4-3.7-10.2-9.8-5-17.2c2.7-3.9,6.2-7.1,10.2-9.5
		c56.9-33.4,111.4-70.1,163.8-110.2c17-13,42.2-7.9,53.4,9.9c7.8,12.4,5.7,26.2-6.3,34.7c-52,36.7-107.8,66.5-166.5,90.7
		C161,587.9,150.9,589.1,139.7,589"/>
	<path fill="#FFFFFF" d="M149.5,313c-0.5,8.1-3.3,16.6-9.6,23.6c-13.7,15.4-32.5,14.5-44.1-2.3C62.3,286,34.3,234.6,11,180.6
		c-6.2-14.3-9.8-28.9-8.8-44.5c0.3-4.9,1.1-10,2.8-14.6c3.2-8.9,10-10.8,17.8-5.4c5,3.4,8.4,8.3,11.4,13.5
		c32.2,55,67.7,107.7,106.7,158.1C147,295.8,149.6,303.5,149.5,313"/>
	<path fill="#FFFFFF" d="M450.6,2c5.7,0.1,11.3,1,16.7,2.5c11.9,3.3,14.3,11.8,5.8,20.9c-3.1,3.4-7,6.2-11,8.5
		c-54.9,32.3-107.7,67.7-158.2,106.5c-17.8,13.7-41.8,10.9-54.1-5.8c-9.8-13.2-7.7-28.1,5.8-37.5c51.1-35.6,105.7-65,163.1-89
		c4.3-1.8,8.9-3,13.5-3.9C438.2,3.3,444.4,2.8,450.6,2"/>
	<path fill="#FFFFFF" d="M448.1,300.1c-14.6-21.6-0.9-50.3,16.8-54.1c4.3-0.9,10-1.2,16.8-0.1c6.2,1,9.6,5.5,12.8,10.1
		c35.3,50.9,64.8,105,88.5,162.2c6.5,15.6,7.9,32.1,3.9,48.6c-3,12.6-11.9,14.9-21.3,6c-2.9-2.7-5.4-6.1-7.4-9.6
		c-27.2-46.2-56.7-90.9-88.4-134.1L448.1,300.1z"/>
</g>
</svg>
